<svg xmlns="http://www.w3.org/2000/svg" viewBox="0 0 38 38"><defs><style>.cls-1{fill:none;}.cls-2{fill:#47525b;}</style></defs><g id="general"><g id="Rectangle_652" data-name="Rectangle 652"><rect class="cls-1" x="20" y="20" width="4" height="4"/><path class="cls-2" d="M24,24H20V20h4Zm-3-1h2V21H21Z"/></g><g id="Rectangle_656" data-name="Rectangle 656"><rect class="cls-1" x="20" y="15" width="4" height="4"/><path class="cls-2" d="M24,19H20V15h4Zm-3-1h2V16H21Z"/></g><g id="Rectangle_653" data-name="Rectangle 653"><rect class="cls-1" x="27" y="20" width="4" height="4"/><path class="cls-2" d="M31,24H27V20h4Zm-3-1h2V21H28Z"/></g><g id="Rectangle_655" data-name="Rectangle 655"><rect class="cls-1" x="27" y="15" width="4" height="4"/><path class="cls-2" d="M31,19H27V15h4Zm-3-1h2V16H28Z"/></g><path class="cls-2" d="M31,10V7.09H29V10H15V7H13v3H10v4.12A5.14,5.14,0,0,0,9.12,14a5.9,5.9,0,0,0-5.9,5.9c0,3.26,5.9,12.46,5.9,12.46A52.42,52.42,0,0,0,12.29,27H34V10ZM9.12,30.51C7,27,4.22,21.84,4.22,19.94a4.9,4.9,0,0,1,9.8,0C14,21.84,11.29,27,9.12,30.51ZM14.87,21H16v2H14.2A13.79,13.79,0,0,0,14.87,21ZM14,16.65V16h2v2H14.68A5.7,5.7,0,0,0,14,16.65ZM33,26H12.79c.16-.34.83-1.67,1-2H17V20H15v-.06a5.86,5.86,0,0,0-.08-.94H17V15H13v.53a6,6,0,0,0-2-1.18V13H33Z"/></g></svg>