<?xml version="1.0" encoding="utf-8"?>
<!-- Generator: Adobe Illustrator 26.2.1, SVG Export Plug-In . SVG Version: 6.00 Build 0)  -->
<svg version="1.1" id="Layer_1" xmlns="http://www.w3.org/2000/svg" xmlns:xlink="http://www.w3.org/1999/xlink" x="0px" y="0px"
	 viewBox="0 0 32 32" style="enable-background:new 0 0 32 32;" xml:space="preserve">
<style type="text/css">
	.st0{fill:#66696C;}
</style>
<polygon class="st0" points="16.2,5.1 16.7,5.6 16.3,6.2 18.5,8.5 19.2,10.5 18.8,12.2 17.8,12.7 17.8,13 19.7,14.2 19.1,16.1 
	20.1,16.6 22.3,13.5 22.3,12.8 23,12.4 23.6,12.6 24.5,10.2 23.8,9.9 22.7,10.4 21.5,9.8 20.7,8.6 19.3,8.8 19,7.8 18.6,6.2 
	17.3,5.6 16.5,5 "/>
<path class="st0" d="M16.3,14.5l0.7,1.6l1-0.8l0.4,1.7L17,18.8l-0.6,1l0.3,0.5l0.1,0.2c0,0-0.1,0.2-0.2,0.2l-1.2,0.2l-1.1,0.5
	L14,22.6l-0.4,0.8l-0.6,1l-1.7,1.3l-3.5-0.8l-0.4-1l2.7-3l1.7-0.8l3.2-3.4l0.3-1.2l0.3-0.6L16.3,14.5z"/>
<polygon class="st0" points="9.7,25.7 10.1,26.6 8.7,27 9.4,25.8 "/>
</svg>
