<?xml version="1.0" encoding="utf-8"?>
<!-- Generator: Adobe Illustrator 26.2.1, SVG Export Plug-In . SVG Version: 6.00 Build 0)  -->
<svg version="1.1" id="Layer_1" xmlns="http://www.w3.org/2000/svg" xmlns:xlink="http://www.w3.org/1999/xlink" x="0px" y="0px"
	 viewBox="0 0 16 16" style="enable-background:new 0 0 16 16;" xml:space="preserve">
<style type="text/css">
	.st0{fill:none;stroke:#66696C;stroke-width:1.5;stroke-miterlimit:10;}
	.st1{fill:#66696C;}
</style>
<circle class="st0" cx="8" cy="8" r="7"/>
<path class="st1" d="M8.6,10H7.4c0-0.2,0-0.3,0-0.3c0-0.3,0.1-0.7,0.2-1C7.8,8.3,8,8,8.4,7.8c0.3-0.2,0.5-0.4,0.7-0.6
	C9.2,7,9.3,6.8,9.3,6.6c0-0.3-0.1-0.5-0.3-0.7C8.7,5.7,8.4,5.6,8.1,5.6c-0.3,0-0.6,0.1-0.9,0.3C7,6.2,6.8,6.5,6.7,6.8L5.5,6.7
	c0-0.6,0.3-1.1,0.8-1.5C6.7,4.8,7.3,4.6,8,4.6c0.7,0,1.4,0.2,1.9,0.6c0.4,0.4,0.7,0.9,0.7,1.4c0,0.3-0.1,0.6-0.3,0.9
	C10,7.9,9.6,8.3,9.2,8.6C9,8.8,8.8,9,8.7,9.2C8.6,9.5,8.6,9.7,8.6,10z M7.4,12v-1h1.3v1H7.4z"/>
</svg>
