<svg xmlns="http://www.w3.org/2000/svg" viewBox="0 0 32 32"><title>icon_nz</title><polygon points="16.19 5.09 16.7 5.61 16.34 6.19 18.5 8.48 19.18 10.51 18.77 12.19 17.79 12.68 17.81 13.01 19.74 14.16 19.06 16.07 20.11 16.64 22.34 13.54 22.27 12.84 23 12.42 23.65 12.58 24.5 10.19 23.8 9.95 22.7 10.4 21.51 9.82 20.66 8.63 19.32 8.82 19.04 7.77 18.57 6.18 17.27 5.59 16.5 5 16.19 5.09" style="fill:#b2b8bd"/><path d="M16.34,14.53,17,16.15,18,15.31l.4,1.68-1.38,1.84-.57,1,.32.51.08.16s-.13.2-.19.22l-1.22.21-1.13.52-.26,1.16-.43.76-.57,1-1.7,1.34-3.48-.83-.39-1,2.68-3,1.74-.77,3.17-3.43.33-1.18.29-.56Z" style="fill:#b2b8bd"/><polygon points="9.67 25.69 10.09 26.57 8.72 27 9.36 25.78 9.67 25.69" style="fill:#b2b8bd"/></svg>