<?xml version="1.0" encoding="utf-8"?>
<!-- Generator: Adobe Illustrator 26.2.1, SVG Export Plug-In . SVG Version: 6.00 Build 0)  -->
<svg version="1.1" id="Layer_1" xmlns="http://www.w3.org/2000/svg" xmlns:xlink="http://www.w3.org/1999/xlink" x="0px" y="0px"
	 viewBox="0 0 48 48" style="enable-background:new 0 0 48 48;" xml:space="preserve">
<style type="text/css">
	.st0{fill:#66696C;stroke:#66696C;stroke-width:0.75;stroke-miterlimit:10;}
	.st1{fill:#66696C;}
</style>
<path class="st0" d="M26.9,33.5c-1.3,1.7-2.4,3.1-2.9,3.8c-1.8-2.2-9.5-11.8-9.5-16.7c-0.1-5.4,4.1-9.9,9.5-10c3.7,0,7,2.2,8.5,5.6
	c0.4,0,0.8,0,1.1,0.1c-1.6-4-5.4-6.6-9.7-6.7c-5.9,0.1-10.6,5.1-10.5,11c0,5.9,9.7,17.3,10.1,17.8l0.4,0.4l0.4-0.4
	c0.2-0.2,1.7-2,3.5-4.4c-0.3-0.1-0.6-0.2-0.8-0.4L26.9,33.5z"/>
<path class="st1" d="M32.5,18.1c0.5,0,1,0,1.5,0.1c0.1,0,0.1,0.1,0.2,0.2c0.1,0.5,0.1,0.9,0.2,1.4c0,0,0,0.1,0,0.1
	c0,0.1,0.7,0.4,0.9,0.4c0,0,0.1,0,0.1,0l1.2-0.9c0.9,0.6,1.6,1.3,2.2,2.2c0,0.1,0,0.2,0,0.2c-0.3,0.4-0.5,0.7-0.8,1.1
	c0,0.1,0,0.2,0,0.3c0,0.1,0.1,0.2,0.1,0.3c0.1,0.4,0.3,0.5,0.6,0.5s0.7,0.1,1.1,0.1c0.1,0,0.2,0.1,0.2,0.2c0.2,1,0.2,1.9,0,2.9
	c0,0.1-0.1,0.2-0.2,0.2l-1.3,0.2c-0.2,0-0.2,0.1-0.3,0.2c0,0.1,0,0.1-0.1,0.2c-0.2,0.3-0.2,0.7,0.1,1c0,0,0,0,0,0
	c0.2,0.2,0.3,0.5,0.5,0.7c0.1,0.1,0.1,0.3,0,0.4c0,0,0,0,0,0c-0.5,0.7-1.2,1.4-1.9,1.9c-0.1,0-0.1,0.1-0.2,0.1c-0.1,0-0.1,0-0.2-0.1
	c-0.3-0.3-0.7-0.5-1-0.8c-0.1,0-0.1,0-0.2,0H35c-0.1,0-0.2,0.1-0.3,0.1c-0.3,0.1-0.4,0.3-0.5,0.6c0,0.3-0.1,0.7-0.1,1.1
	c0,0.1-0.1,0.2-0.2,0.2c-0.5,0.1-1,0.1-1.4,0.1c-0.5,0-1-0.1-1.4-0.2c-0.1,0-0.2-0.1-0.2-0.2c0,0,0,0,0,0c0-0.4-0.1-0.9-0.2-1.3
	c0,0,0-0.1,0-0.1c0-0.1-0.6-0.4-0.9-0.4c0,0-0.1,0-0.1,0c-0.4,0.3-0.7,0.5-1.1,0.8c-0.1,0-0.1,0.1-0.2,0.1c-0.1,0-0.1,0-0.2-0.1
	c-0.8-0.5-1.5-1.2-2-2c-0.1-0.1-0.1-0.2,0-0.3c0,0,0,0,0,0c0.3-0.4,0.5-0.7,0.8-1c0.1-0.1,0.1-0.2,0-0.3c-0.1-0.1-0.1-0.2-0.1-0.3
	c-0.1-0.4-0.3-0.4-0.6-0.5s-0.7-0.1-1.1-0.1c-0.1,0-0.2-0.1-0.2-0.2c-0.2-1-0.2-1.9,0-2.9c0-0.1,0.1-0.2,0.2-0.2c0,0,0,0,0,0
	c0.5-0.1,0.9-0.1,1.4-0.2c0.1,0,0.2-0.1,0.2-0.2s0-0.1,0.1-0.2c0.2-0.3,0.2-0.7-0.1-1c0,0,0,0,0,0c-0.2-0.2-0.4-0.5-0.6-0.8
	c-0.1-0.1-0.1-0.2,0-0.3c0.5-0.8,1.2-1.5,2-2c0,0,0.1-0.1,0.2-0.1c0.1,0,0.1,0,0.2,0.1c0.4,0.3,0.7,0.5,1.1,0.8c0.1,0,0.1,0,0.2,0
	h0.1c0.1,0,0.2-0.1,0.3-0.1c0.4-0.1,0.5-0.3,0.5-0.7c0-0.3,0.1-0.7,0.1-1c0-0.1,0.1-0.2,0.2-0.2C31.4,18.1,31.9,18.1,32.5,18.1
	 M32.4,28.4c1.5,0,2.8-1.2,2.8-2.8s-1.2-2.8-2.8-2.8l0,0c-1.5,0-2.8,1.2-2.8,2.8S30.9,28.4,32.4,28.4L32.4,28.4"/>
</svg>
