<svg xmlns="http://www.w3.org/2000/svg" viewBox="0 0 48 48"><title>icon_settings-grey</title><path d="M26.92,33.47c-1.26,1.71-2.37,3.08-2.92,3.75-1.82-2.2-9.5-11.8-9.5-16.72a9.77,9.77,0,0,1,9.5-10,9.47,9.47,0,0,1,8.51,5.58,9.19,9.19,0,0,1,1.14.09A10.52,10.52,0,0,0,24,9.5a10.77,10.77,0,0,0-10.5,11c0,5.92,9.71,17.34,10.12,17.83l.38.44.38-.44c.16-.18,1.66-2,3.47-4.4a2.3,2.3,0,0,1-.81-.36Z" style="fill:#808990;stroke:#808990;stroke-miterlimit:10;stroke-width:0.75px"/><path d="M32.46,18.08a7.23,7.23,0,0,1,1.47.15.26.26,0,0,1,.16.17c.08.45.14.9.2,1.36a.9.9,0,0,0,0,.1c0,.14.65.38.91.38a.17.17,0,0,0,.1,0l1.25-.94a7.38,7.38,0,0,1,2.21,2.18.27.27,0,0,1,0,.23c-.27.37-.55.73-.81,1.1a.42.42,0,0,0,0,.29c0,.11.1.2.12.3.06.35.29.46.62.48s.72.11,1.08.15c.14,0,.18.08.2.2a7.65,7.65,0,0,1,0,2.88c0,.13-.08.18-.21.19l-1.33.19c-.15,0-.23.07-.26.22a.43.43,0,0,1-.06.16.69.69,0,0,0,.12,1c.21.21.35.48.54.7a.28.28,0,0,1,0,.41,8.09,8.09,0,0,1-1.93,1.93.37.37,0,0,1-.2.08.3.3,0,0,1-.19-.08c-.34-.28-.69-.54-1.05-.79a.31.31,0,0,0-.17,0H35c-.11,0-.21.11-.33.13-.33.06-.44.26-.46.58s-.1.72-.14,1.08c0,.14-.06.2-.2.23a7.91,7.91,0,0,1-1.44.13A7.77,7.77,0,0,1,31,33.09a.2.2,0,0,1-.2-.21c-.05-.44-.13-.89-.19-1.33a.87.87,0,0,0,0-.1c0-.14-.65-.38-.91-.38a.17.17,0,0,0-.1,0c-.36.27-.72.53-1.07.81a.31.31,0,0,1-.19.08.29.29,0,0,1-.17-.06,8.06,8.06,0,0,1-2-2,.23.23,0,0,1,0-.33c.27-.35.53-.71.8-1.05a.25.25,0,0,0,0-.34.84.84,0,0,1-.13-.3c-.06-.35-.29-.44-.6-.46s-.72-.1-1.08-.14c-.14,0-.18-.07-.21-.2a7.73,7.73,0,0,1,0-2.88.2.2,0,0,1,.21-.19c.45-.06.91-.12,1.36-.2.08,0,.16-.11.23-.18s0-.13.08-.19a.7.7,0,0,0-.12-1c-.21-.23-.38-.5-.57-.75a.22.22,0,0,1,0-.31,7.92,7.92,0,0,1,2-2,.28.28,0,0,1,.16-.06.28.28,0,0,1,.17.07c.35.28.71.55,1.08.8a.31.31,0,0,0,.17,0h.12c.1,0,.18-.1.28-.11.4-.06.49-.32.51-.68a8.47,8.47,0,0,1,.15-1,.28.28,0,0,1,.17-.19,7.19,7.19,0,0,1,1.45-.15m0,10.3a2.77,2.77,0,0,0,0-5.55h0a2.77,2.77,0,0,0,0,5.55h0" style="fill:#808990"/></svg>