<svg xmlns="http://www.w3.org/2000/svg" viewBox="0 0 38 38"><defs><style>.cls-1{fill:none;stroke:#47525b;}.cls-2{fill:#47525b;}</style></defs><g id="tide-gauge"><path id="Path_924" data-name="Path 924" class="cls-1" d="M4.1,23.7c2.59,0,2.55-3.2,5.17-3.2,2.79,0,2,3.06,4.7,3.2s2.16-3.2,4.93-3.2,2.36,3.21,5.14,3.2,2.68-3.2,5.31-3.2,2.52,3.33,4.65,3.2"/><path id="Path_924-2" data-name="Path 924" class="cls-1" d="M4.1,28.36c2.59,0,2.55-3.2,5.17-3.2,2.79,0,2,3.06,4.7,3.2s2.16-3.2,4.93-3.2,2.36,3.21,5.14,3.2,2.68-3.2,5.31-3.2,2.52,3.33,4.65,3.2"/><path id="Path_924-3" data-name="Path 924" class="cls-1" d="M4.1,33c2.59,0,2.55-3.2,5.17-3.2,2.79,0,2,3.06,4.7,3.2s2.16-3.2,4.93-3.2S21.26,33,24,33s2.68-3.2,5.31-3.2S31.87,33.16,34,33"/><line id="Line_77" data-name="Line 77" class="cls-1" x1="16.5" y1="19" x2="16.5" y2="12"/><path class="cls-2" d="M18.4,13l-3.91,0,2-3.41Z"/><line id="Line_77-2" data-name="Line 77" class="cls-1" x1="23.28" y1="9.61" x2="23.28" y2="16.61"/><path class="cls-2" d="M21.38,15.61l3.91,0-2,3.41Z"/><path id="Path_927" data-name="Path 927" class="cls-1" d="M6.51,22.36V7h5.2V22.28"/><line id="Line_79" data-name="Line 79" class="cls-1" x1="6.31" y1="10.5" x2="8.77" y2="10.5"/><line id="Line_80" data-name="Line 80" class="cls-1" x1="6.31" y1="13.5" x2="10" y2="13.5"/><line id="Line_81" data-name="Line 81" class="cls-1" x1="6.31" y1="16.5" x2="8.85" y2="16.5"/><path class="cls-1" d="M7.83,7.19h0V4.72A1.28,1.28,0,0,1,9.11,3.44h0a1.29,1.29,0,0,1,1.28,1.28V7.19h0"/></g></svg>