<svg xmlns="http://www.w3.org/2000/svg" viewBox="0 0 38 38"><defs><style>.cls-1{fill:none;stroke:#47525b;}.cls-2{fill:#47525b;}</style></defs><g id="observations"><line id="Line_77" data-name="Line 77" class="cls-1" x1="23.84" y1="27.81" x2="30.84" y2="27.81"/><path class="cls-2" d="M29.84,29.71l0-3.91,3.42,2Z"/><line id="Line_77-2" data-name="Line 77" class="cls-1" x1="33.88" y1="17.92" x2="33.88" y2="10.92"/><path class="cls-2" d="M35.78,11.92H31.87l2-3.41Z"/><path id="Path_927" data-name="Path 927" class="cls-1" d="M23.64,22.36V7h5.21V22.28"/><line id="Line_79" data-name="Line 79" class="cls-1" x1="23.45" y1="10.5" x2="25.91" y2="10.5"/><line id="Line_80" data-name="Line 80" class="cls-1" x1="23.45" y1="13.5" x2="27.14" y2="13.5"/><line id="Line_81" data-name="Line 81" class="cls-1" x1="23.45" y1="16.5" x2="25.99" y2="16.5"/><path id="Path_929" data-name="Path 929" class="cls-1" d="M2.93,30.28l14.45-4.7,4.93-2.95h8.24a3.53,3.53,0,0,0,1.5-.45,34,34,0,0,1,4.12-2.61"/><path class="cls-2" d="M20.76,22.63c-1-.83-4.74-3-4.74-5.4a2.48,2.48,0,0,1,2.38-2.54S13.05,10,7,16c-3.63,3.63-3.52,5.47-4.26,7.47l0,5.52,0,2.06L13,27.19l5.73-2.31,2.64-2Z"/></g></svg>