<svg xmlns="http://www.w3.org/2000/svg" viewBox="0 0 38 38"><defs><style>.cls-1{fill:none;}.cls-1,.cls-3{stroke:#47525b;}.cls-2,.cls-3{fill:#47525b;}</style></defs><g id="summary"><polyline class="cls-1" points="22.8 8.5 28.5 8.5 28.5 31.56 9.5 31.56 9.5 8.5 15.49 8.5"/><polyline class="cls-1" points="22.59 10.51 26.5 10.51 26.5 29.5 11.5 29.5 11.5 10.51 16 10.51"/><rect class="cls-2" x="14.98" y="7" width="8.02" height="5"/><path class="cls-3" d="M18.49,5.88h1A1.14,1.14,0,0,1,20.65,7V7a.58.58,0,0,1-.58.58H17.93A.58.58,0,0,1,17.35,7V7a1.14,1.14,0,0,1,1.14-1.14Z"/><rect class="cls-2" x="14" y="16" width="1" height="1"/><rect class="cls-2" x="16" y="16" width="8" height="1"/><rect class="cls-2" x="16" y="19" width="8" height="1"/><rect class="cls-2" x="16" y="22" width="8" height="1"/><rect class="cls-2" x="16" y="25" width="8" height="1"/><rect class="cls-2" x="14" y="19" width="1" height="1"/><rect class="cls-2" x="14" y="22" width="1" height="1"/><rect class="cls-2" x="14" y="25" width="1" height="1"/></g></svg>