<?xml version="1.0" encoding="UTF-8"?><svg xmlns="http://www.w3.org/2000/svg" viewBox="0 0 38 38"><defs><style>.bc{fill:#47525b;}.bd{fill:none;stroke:#47525b;}</style></defs><g id="a"/><g id="b"/><g id="c"/><g id="d"/><g id="e"/><g id="f"><g id="g"/></g><g id="h"/><g id="i"/><g id="j"/><g id="k"/><g id="l"/><g id="m"/><g id="n"/><g id="o"/><g id="p"/><g id="q"/><g id="r"/><g id="s"/><g id="t"/><g id="u"/><g id="v"/><g id="w"/><g id="x"/><g id="y"/><g id="a`"/><g id="aa"/><g id="ab"/><g id="ac"/><g id="ad"/><g id="ae"/><g id="af"/><g id="ag"/><g id="ah"/><g id="ai"/><g id="aj"/><g id="ak"/><g id="al"/><g id="am"/><g id="an"/><g id="ao"><g><line id="ap" class="bd" x1="23.84" y1="27.81" x2="30.84" y2="27.81"/><path class="bc" d="M29.84,29.71l-.02-3.91,3.41,1.97-3.39,1.94Z"/></g><g><line id="aq" class="bd" x1="33.88" y1="17.92" x2="33.88" y2="10.92"/><path class="bc" d="M35.78,11.92l-3.91,.02,1.97-3.41,1.94,3.39Z"/></g><path id="ar" class="bd" d="M23.64,22.36V6.99h5.2v15.28"/><line id="as" class="bd" x1="23.45" y1="10.5" x2="25.91" y2="10.5"/><line id="at" class="bd" x1="23.45" y1="13.5" x2="27.14" y2="13.5"/><line id="au" class="bd" x1="23.45" y1="16.5" x2="25.99" y2="16.5"/><path id="av" class="bd" d="M2.93,30.28l14.45-4.7,4.93-2.95h8.23s.81-.02,1.5-.44c1.5-.93,2.51-1.9,4.12-2.62"/><path class="bc" d="M20.76,22.63c-1.02-.82-4.74-2.97-4.74-5.4s2.38-2.53,2.38-2.53c0,0-4.68-4.62-10.74,1.44-3.63,3.63-4.18,5.34-4.92,7.34l-.02,5.52,.02,2.06,10.26-3.85,5.72-2.31,2.64-1.98-.61-.28Z"/></g><g id="aw"/><g id="ax"/><g id="ay"/><g id="b`"/><g id="ba"/><g id="bb"/></svg>