<?xml version="1.0" encoding="UTF-8"?><svg xmlns="http://www.w3.org/2000/svg" viewBox="0 0 38 38"><defs><style>.b`{fill:none;}.ba{fill:#47525b;}</style></defs><g id="a"/><g id="b"/><g id="c"/><g id="d"/><g id="e"/><g id="f"><g id="g"/></g><g id="h"/><g id="i"/><g id="j"/><g id="k"/><g id="l"/><g id="m"/><g id="n"/><g id="o"/><g id="p"/><g id="q"/><g id="r"/><g id="s"/><g id="t"/><g id="u"/><g id="v"/><g id="w"/><g id="x"/><g id="y"/><g id="a`"/><g id="aa"/><g id="ab"/><g id="ac"/><g id="ad"/><g id="ae"/><g id="af"/><g id="ag"/><g id="ah"/><g id="ai"/><g id="aj"/><g id="ak"/><g id="al"/><g id="am"/><g id="an"><g id="ao" transform="translate(7.328 4.317)"><rect class="b`" x="20" y="20" width="4" height="4"/><path class="ba" d="M24,24h-4v-4h4v4Zm-3-1h2v-2h-2v2Z"/></g><g id="ap" transform="translate(7.328 -0.683)"><rect class="b`" x="20" y="15" width="4" height="4"/><path class="ba" d="M24,19h-4v-4h4v4Zm-3-1h2v-2h-2v2Z"/></g><g id="aq" transform="translate(14.328 4.317)"><rect class="b`" x="27" y="20" width="4" height="4"/><path class="ba" d="M31,24h-4v-4h4v4Zm-3-1h2v-2h-2v2Z"/></g><g id="ar" transform="translate(14.328 -0.683)"><rect class="b`" x="27" y="15" width="4" height="4"/><path class="ba" d="M31,19h-4v-4h4v4Zm-3-1h2v-2h-2v2Z"/></g><path class="ba" d="M31,10v-2.91h-2v2.91H15v-3h-2v3h-3v4.12c-.29-.04-.58-.07-.88-.07-3.26,0-5.9,2.64-5.9,5.9s5.9,12.45,5.9,12.45c0,0,1.49-2.14,3.17-5.4h21.71V10h-3ZM9.12,30.51c-2.17-3.56-4.9-8.67-4.9-10.57,0-2.7,2.2-4.9,4.9-4.9s4.9,2.2,4.9,4.9c0,1.9-2.73,7.01-4.9,10.57Zm5.75-9.51h1.13v2h-1.8c.3-.73,.53-1.41,.67-2Zm-.87-4.35v-.65h2v2h-1.32c-.17-.48-.4-.93-.68-1.35Zm19,9.35H12.79c.16-.34,.84-1.67,.99-2h3.23v-4h-1.98s0-.04,0-.06c0-.32-.03-.64-.08-.94h2.06v-4h-4v.53c-.58-.51-1.25-.92-2-1.17v-1.35h22v13Z"/></g><g id="as"/><g id="at"/><g id="au"/><g id="av"/><g id="aw"/><g id="ax"/><g id="ay"/></svg>