<?xml version="1.0" encoding="UTF-8"?><svg xmlns="http://www.w3.org/2000/svg" viewBox="0 0 98 48"><defs><style>.aw{fill:#fff;}</style></defs><g id="a"/><g id="b"/><g id="c"/><g id="d"/><g id="e"/><g id="f"><g id="g"/></g><g id="h"/><g id="i"/><g id="j"/><g id="k"/><g id="l"/><g id="m"/><g id="n"/><g id="o"/><g id="p"/><g id="q"/><g id="r"/><g id="s"/><g id="t"/><g id="u"/><g id="v"/><g id="w"/><g id="x"/><g id="y"/><g id="a`"/><g id="aa"/><g id="ab"/><g id="ac"/><g id="ad"/><g id="ae"/><g id="af"/><g id="ag"/><g id="ah"/><g id="ai"/><g id="aj"/><g id="ak"/><g id="al"/><g id="am"><path id="an" class="aw" d="M29.1,22.5c3.84,4.23,5.76,8.05,4.49,9.58-1.76,2.13-9.01-.96-16.19-6.91-.88-.73-1.71-1.46-2.5-2.19l-.18-.17s-.4,.93-.53,1.37v.02c-.07,.21-.13,.42-.17,.63v.05c-.05,.2-.09,.39-.11,.57-.3,1.26,.11,2.58,1.07,3.45l.03,.02c1.76,1.29,3.93,1.88,6.1,1.66-4.24,3.3-8.35,4.57-10.32,2.85-1.94-1.7-1.29-5.83,1.3-10.41,.12-.2,.24-.41,.36-.61l.02-.04c.13-.23,.29-.49,.47-.75,.06-.1,.13-.2,.2-.3l.03-.04c-4.56-4.68-6.96-9.06-5.58-10.73,1.24-1.5,5.21-.4,9.97,2.46-1.69,.5-3.2,1.49-4.32,2.86-.23,.28-.44,.57-.63,.87-.06,.09-.11,.18-.16,.26l-.03,.05-.1,.24c-.16,.62,.25,1.61,1.53,3.01,.08-.11,.16-.22,.24-.34,.14-.19,.28-.38,.42-.57l.04-.06,.04-.05,.03-.04,.05-.06c.28-.36,.56-.71,.86-1.07,.16-.19,.33-.39,.49-.58,.69-.79,1.4-1.54,2.12-2.23,.41-.4,.83-.78,1.24-1.14,.24-.21,.49-.42,.73-.62l.1-.08c.23-.19,.46-.37,.69-.54,4.19-3.2,8.21-4.42,10.16-2.73,2.09,1.82,1.18,6.47-1.92,11.44,0-.53-.06-1.05-.16-1.57-.27-1.77-1.11-3.4-2.4-4.65-1.94-1.67-6.14-.04-9.39,3.64-.67,.75-1.43,1.87-1.43,1.87l-.49,.77,.21,.19c5.87,5.22,9.96,6.34,11.46,5.45,.18-.11,.34-.25,.48-.42l.03-.05s.06-.08,.09-.12c.89-1.26,1.43-2.73,1.56-4.26m4.42-15.14c-.06,.04-.11,.08-.16,.13-.18,.25-.15,.59,.08,.79,.19,.15,11.49,11.73,2.16,24.37-.19,.25-.39,.5-.6,.73-9.06,9.43-19.56,5.13-24.93,2.53-.69-.34-1.53-.19-2.06,.36-.54,.64-.85,.97-.85,.97,4.42,4.12,20.44,8.23,29.44-2.35,.11-.15,.22-.3,.33-.45,7.65-10.71,2.22-22.44-3.42-27.1m12.79,27.49h1.67l-.52,2.93h.57l.52-2.93h1.67l.08-.48h-3.9l-.08,.48Zm5.88,2.93h3.37l.08-.48h-2.81l.18-1.04h2.69l.08-.48h-2.68l.17-.93h2.79l.08-.48h-3.36l-.6,3.42Zm13.99-2.51l-.06,.31c-.05,.3-.24,.41-.58,.41h-2.14l.2-1.15h2.11c.37,0,.53,.09,.47,.43m-.28-.91h-2.77l-.6,3.42h.56l.23-1.3h2.12c1.02,0,1.16-.41,1.29-1.16,.14-.82-.21-.96-.83-.96m6.59,2.52c-.05,.28-.15,.45-.74,.45h-1.55c-.58,0-.63-.17-.58-.45l.44-2.52h-.56l-.45,2.53c-.13,.72,.22,.92,1.07,.92h1.52c.85,0,1.27-.2,1.4-.92l.45-2.53h-.57l-.44,2.52Zm8.69-.29l1.3-1.7,.71,1.7h-2.01Zm1.09-2.24l-2.63,3.42h.64l.53-.7h2.57l.29,.7h.64l-1.43-3.42h-.62Zm8.62,1.09l-.22,1.24c-.03,.39-.38,.68-.77,.65-.02,0-.04,0-.06,0h-1.81c-.41,0-.69-.12-.6-.64l.22-1.24c.03-.39,.38-.68,.77-.65,.02,0,.04,0,.06,0h1.81c.41,0,.69,.12,.6,.64m-.47-1.12h-1.9c-.93,0-1.31,.43-1.46,1.29l-.16,.9c-.15,.86,.07,1.29,1,1.29h1.9c.93,0,1.31-.43,1.46-1.29l.16-.9c.15-.86-.07-1.29-1-1.29m-20.65-1.39l-.08,.43h3.98l.08-.43h-3.98Zm-23.53-1.32h45.34v-.45H46.24v.45Zm14.72-2.8l-.02,.13h.91l.02-.09,.75-4.24,.02-.13h-.91l-.02,.09-.75,4.24Zm-2.69-2.78l-.02,.13h.84l.02-.09,.07-.42c.08-.29,.02-.6-.17-.84-.29-.28-.7-.42-1.1-.37h-2.13c-.95-.1-1.81,.59-1.91,1.54,0,.05,0,.1,0,.15l-.2,1.12c-.14,.45-.08,.94,.18,1.34,.31,.3,.75,.44,1.18,.39h2.1c1.29,0,1.64-.52,1.78-1.3l.06-.34,.02-.13h-.88l-.02,.09-.06,.32c-.08,.43-.21,.56-.91,.56h-1.95c-.21,.03-.42-.03-.58-.17-.1-.15-.12-.34-.07-.51l.27-1.55c.11-.6,.45-.72,.94-.72h1.93c.28,0,.51,0,.61,.12,.07,.13,.09,.28,.04,.42l-.04,.25Zm-8.96,2.96c.68,0,1.81,0,2.03-1.24l.05-.27c.07-.28,.02-.57-.16-.8-.38-.32-.87-.47-1.37-.4h-1.65c-.42,0-.66-.04-.73-.13-.04-.05-.05-.15-.02-.33,.09-.5,.29-.58,1.4-.58h.59c.14,0,.28,0,.4,0,.37-.01,.66-.02,.78,.11,.08,.09,.1,.27,.05,.55l-.02,.13h.87l.02-.09,.04-.21c.09-.3,.03-.62-.15-.87-.24-.29-.72-.41-1.55-.41h-1.2c-1.15,0-1.9,.22-2.09,1.3-.1,.33-.05,.69,.14,.98,.32,.37,1.02,.4,2.07,.4h1.06c.35,0,.54,.04,.6,.11,.05,.06,.05,.16,.02,.34-.08,.46-.23,.61-1,.61h-1.72c-.33,0-.53-.05-.61-.14-.05-.08-.06-.18-.03-.27l.06-.36,.02-.13h-.88l-.02,.09-.07,.37c-.08,.29-.02,.6,.16,.84,.38,.31,.86,.45,1.35,.39h1.55Zm34.29-2.96l-.02,.13h.84l.02-.09,.07-.42c.07-.29,.01-.6-.17-.84-.3-.28-.7-.42-1.11-.37h-2.13c-.95-.1-1.81,.59-1.91,1.54,0,.05,0,.1,0,.16l-.2,1.12c-.14,.45-.08,.94,.18,1.34,.31,.3,.74,.44,1.18,.39h2.1c1.29,0,1.64-.52,1.78-1.3l.06-.34,.02-.13h-.87l-.02,.09-.06,.32c-.08,.43-.21,.56-.91,.56h-1.95c-.21,.03-.42-.03-.58-.17-.1-.15-.12-.34-.07-.51l.27-1.55c.11-.6,.45-.72,.94-.72h1.93c.28,0,.51,0,.61,.12,.07,.13,.09,.28,.04,.42l-.04,.25Zm3.42-1.46l-.75,4.24-.02,.13h4.41l.02-.09,.1-.58,.02-.13h-3.5l.19-1.09h3.34l.02-.09,.1-.58,.02-.13h-3.35l.17-.96h3.48l.02-.09,.1-.58,.02-.13h-4.38l-.02,.09Zm-11.35,3.3l-2.9-3.35-.03-.04h-1.06l-.02,.09-.75,4.24-.02,.13h.91l.02-.09,.58-3.3,2.9,3.35,.03,.04h1.06l.02-.09,.75-4.24,.02-.13h-.91v.09l-.6,3.3Zm-6.42-2.59h.09v-.09l.11-.58,.02-.13h-4.39v.09l-.76,4.24-.02,.13h4.41l.02-.09,.1-.58,.02-.13h-3.5l.19-1.09h3.35l.02-.09,.1-.58,.02-.13h-3.35l.17-.96h3.39Zm-18.65-3.41h3.84c3.6,0,5.18-.15,5.71-3.14l.52-2.97h-7.17l-.38,2.16h3.97l-.05,.3c-.18,1.01-1.04,1.14-1.87,1.14h-3.41c-1.61,0-1.96-.39-1.65-2.17l.23-1.3c.32-1.79,.8-2.18,2.41-2.18h3.47c1.02,0,1.59,.13,1.41,1.17h3.14l.06-.33c.36-2.03,.08-3.34-3.54-3.34h-4.81c-2.88,0-4.72,.72-5.26,3.77l-.55,3.11c-.54,3.05,1.05,3.77,3.93,3.77m37.39-10.65h-4.46c-4.03,0-4.46,1.45-4.79,3.34-.45,2.56,0,3.14,4.8,3.14,4.12,0,4.48,.06,4.32,.96-.14,.81-.85,.88-1.52,.88h-3.92c-.92,0-1.35-.09-1.17-1.2h-3.2l-.13,.72c-.4,2.26,.67,2.81,3.58,2.81h3.87c4.25,0,5.28-.46,5.78-3.27,.54-3.04-.56-3.34-5.53-3.33-3.43,.01-3.81-.01-3.65-.92,.1-.56,.63-.81,1.35-.81h3.54c1.47,0,1.5,.32,1.36,1.08h3.2l.06-.33c.32-1.83,.2-3.08-3.49-3.08m-13.62,.12l-1.29,7.29c-.07,0-.13,0-.2-.02-.05,0-.1-.04-.13-.08-.17-.27-3.34-5.45-3.6-5.86-.5-.86-1.43-1.37-2.42-1.34h-4.48c.21,.1,.38,.27,.49,.47,.21,.52,.3,1.08,.27,1.63l-1.47,8.33h3.2l1.29-7.3c.06,0,.11-.01,.17-.01,.04,0,.07,.02,.1,.04,0,0,3.44,5.58,3.69,5.98,.53,.83,1.45,1.31,2.43,1.29,.79-.01,3.32,0,3.32,0l1.84-10.43h-3.2Z"/></g><g id="ao"/><g id="ap"/><g id="aq"/><g id="ar"/><g id="as"/><g id="at"/><g id="au"/><g id="av"/></svg>